<?xml version="1.0" encoding="utf-8"?>
<!-- Generator: Adobe Illustrator 15.0.0, SVG Export Plug-In . SVG Version: 6.00 Build 0)  -->
<!DOCTYPE svg PUBLIC "-//W3C//DTD SVG 1.1//EN" "http://www.w3.org/Graphics/SVG/1.1/DTD/svg11.dtd">
<svg version="1.1" id="Capa_1" xmlns="http://www.w3.org/2000/svg" xmlns:xlink="http://www.w3.org/1999/xlink" x="0px" y="0px"
	 width="414.996px" height="414.996px" viewBox="0 0 414.996 414.996" enable-background="new 0 0 414.996 414.996"
	 xml:space="preserve">
<g>
	<path d="M1.654,169.517c1.225,1.224,2.447,2.448,3.672,3.672c-0.613,0.612-1.225,1.836-1.225,2.448
		c-1.836,10.404,2.447,22.032,4.896,31.824c2.447,9.18,4.283,18.972,6.73,28.764c-2.447,2.448-3.061,6.12,0,9.181
		c50.184,47.736,117.506,77.723,178.704,108.936c4.896,2.449,8.567-3.059,6.12-6.73c7.957-5.508,7.957-17.748,8.568-26.316
		c0.613-7.957,0.613-16.523,0.613-24.479c31.823,13.464,65.483,24.479,98.531,33.659c17.748,4.896,56.305,18.973,76.5,7.346
		c1.225,2.447,3.672,4.895,6.732,3.672c25.092-10.404,22.031-64.873,22.644-86.293c0.612-41.004,3.672-89.352-7.344-129.132
		c0-0.612,0-0.612-0.612-1.224c-1.836-8.568-8.568-17.748-12.852-24.48c-6.12-9.792-14.076-17.748-22.032-25.704
		c1.224-1.836,1.836-3.672,1.224-5.508c-1.224-4.896-6.732-4.284-9.18-1.224c-0.611,0-0.611,0-0.611,0
		c0-3.672-7.957,0.612-11.629,1.836c-7.344,2.448-14.076,4.284-21.42,6.12c-21.42,5.508-43.451,9.792-65.484,14.688
		c-32.436,7.344-66.096,12.852-96.696,25.092c3.672-16.524,3.672-33.66,0-50.184c-1.837-8.568-12.851-6.12-14.076,1.224
		c-0.612,0-1.836,0.612-3.06,1.224c-48.961,29.988-93.637,66.096-146.881,88.74C-0.795,158.503-0.795,165.847,1.654,169.517z
		 M351.717,195.834c-3.673,26.928-14.076,62.423-8.568,89.964c-23.256-15.301-52.632-21.42-78.948-27.541
		c-31.824-7.344-63.648-15.911-95.473-25.702c0,0-0.611,0-1.225,0c-0.611-1.226-1.223-2.448-2.447-3.673
		c-3.061-2.447-7.344-2.447-9.792,0c-4.896,6.119-1.836,18.359-1.224,25.703c0.611,4.896,1.836,15.301,0,19.584
		c-1.223,0-1.836,0.613-2.448,1.226c-46.513-34.272-89.353-69.768-130.968-110.16c48.347-22.032,90.576-54.468,134.027-84.456
		c1.225,13.464,1.225,26.316,0,39.168c-0.613,5.508,7.344,6.732,10.403,3.06c20.81-3.06,146.269-18.36,190.944-38.556
		C361.508,122.395,357.224,157.891,351.717,195.834z M21.236,189.102c36.721,38.558,78.947,83.231,127.297,100.369
		c4.283,1.224,7.344-1.224,7.955-4.284c2.447,1.223,6.121,1.223,8.567-1.225c6.731-6.121,5.508-17.748,4.896-25.705
		c0-3.672-0.611-6.73-0.611-10.402c30.601,14.076,66.709,18.359,99.145,26.314c20.196,4.897,42.229,9.793,61.2,18.974
		c6.731,3.672,11.017,7.344,18.36,4.282c0.611-0.61,1.224-1.223,1.224-1.836v-0.61c3.06,0.612,6.731-0.612,7.345-4.284
		c3.672-17.136,2.447-34.884,4.896-52.021c3.06-22.644,6.731-45.288,9.18-67.931c3.06-25.092,7.345-54.468,1.836-80.784
		c2.448,5.508,4.896,11.016,7.956,16.524c4.896,8.568,8.568,19.584,15.912,26.316c0.612,0.612,1.836,1.224,2.448,1.224
		c-5.509,31.212,0.612,66.708,0.612,97.308c0,22.646,0.611,45.901-3.672,67.933c-1.225,8.567-4.285,15.911-7.345,23.868
		c-1.224,0-3.06,0-4.284,0.611c-22.644,12.852-69.156-6.732-91.8-14.076c-28.764-9.18-57.526-20.808-86.292-30.6
		c-6.732-1.836-11.018,6.732-7.956,11.016c0,9.793-0.612,19.584-1.837,28.764c-0.611,6.734-4.283,14.078-4.283,20.811
		C138.74,304.16,79.988,279.067,29.803,238.063c-0.61-11.628-3.672-23.868-6.12-35.496C23.072,198.283,22.46,193.387,21.236,189.102
		z"/>
</g>
</svg>
